<svg width="46" height="41" viewBox="0 0 46 41" fill="none" xmlns="http://www.w3.org/2000/svg">
<path d="M6.3 6.2C6.3 5.7 6.2 5.3 5.9 4.9C5.8 4.7 5.8 4.5 5.9 4.4C6 4.3 6.2 4.2 6.3 4.2C6.5 4.2 6.7 4.3 6.8 4.6C6.9 4.9 7 5.2 7.1 5.6C7.2 6 7.2 6.4 7.2 6.7C7.2 7.1 7.2 7.3 7.2 7.4C7.2 8.7 7.1 10.1 6.9 11.7C6.7 13.3 6.4 14.9 6.2 16.4C5.9 17.9 5.6 19.3 5.4 20.6C5.1 21.9 5 22.8 4.9 23.5C5.1 23.2 5.5 22.4 6 21.1C6.6 19.8 7.3 18.3 8.2 16.6C9.1 14.9 10.1 13 11.2 11.1C12.3 9.1 13.5 7.4 14.7 5.7C15.9 4.1 17.1 2.7 18.3 1.6C19.5 0.5 20.7 0 21.9 0C22.6 0 23.3 0.200001 23.8 0.700001C24.3 1.2 24.8 1.8 25.1 2.5C25.4 3.2 25.7 4.1 25.8 5C26 5.9 26 6.8 26 7.6C26 9.7 25.6 12.1 24.9 14.8C24.2 17.5 23.1 20.1 21.8 22.5C20.5 24.9 18.9 27 17 28.6C15.1 30.2 13.1 31.1 10.9 31.1C9.2 31.1 7.9 30.7 6.9 30C5.9 29.3 5.1 28.2 4.3 26.8C4 27.4 3.7 28.3 3.4 29.6C3.1 30.8 2.8 32.1 2.6 33.5C2.4 34.9 2 36.1 1.7 37.3C1.4 38.5 1.1 39.4 0.799999 40C0.699999 40.2 0.599999 40.2 0.299999 40.2C0.0999992 40.2 0 40 0 39.9C1.2 35.5 2.2 31.2 3.2 27.1C3.6 25.3 4 23.5 4.4 21.6C4.8 19.7 5.1 17.9 5.4 16C5.7 14.2 5.9 12.4 6.1 10.7C6.3 9 6.3 7.5 6.3 6.2ZM4.8 25.7C4.8 26 4.9 26.4 5.1 26.9C5.3 27.4 5.6 27.9 6 28.4C6.4 28.9 7 29.3 7.8 29.6C8.5 29.9 9.5 30.1 10.6 30.1C12.5 30.1 14.3 29.3 16 27.8C17.7 26.3 19.2 24.4 20.4 22.1C21.7 19.8 22.7 17.3 23.5 14.6C24.3 11.9 24.7 9.3 24.7 6.8C24.7 6.4 24.7 5.9 24.6 5.2C24.5 4.5 24.3 3.8 24.1 3.1C23.9 2.4 23.5 1.8 23.1 1.3C22.7 0.800001 22.2 0.5 21.6 0.5C20.6 0.5 19.5 1.1 18.3 2.2C17.1 3.3 15.8 4.8 14.6 6.5C13.4 8.2 12.2 10.1 11 12.2C9.8 14.2 8.8 16.2 7.9 18C7 19.8 6.3 21.5 5.7 22.8C5.1 24.1 4.8 25.3 4.8 25.7Z" fill="black"/>
<path d="M38.1 3.5C38.2 3.5 38.4 3.6 38.5 3.7C38.7 3.8 38.7 4 38.7 4.2C38.7 4.5 38.5 5.2 38 6.3C37.6 7.4 37 8.6 36.3 10C35.6 11.4 34.8 12.8 33.9 14.2C33 15.6 32.1 16.9 31.2 17.9C30.6 18.6 30.1 18.9 29.8 19.1C29.5 19.2 29.2 19.3 28.8 19.3C28.6 19.7 28.3 20.2 28.1 20.8C27.8 21.4 27.6 21.9 27.4 22.4C27.1 23.1 26.9 23.7 26.5 24.4C26.7 24.2 27.1 23.8 27.7 23.1C28.3 22.4 29 21.7 29.8 21C30.6 20.3 31.4 19.6 32.3 19C33.2 18.4 34 18.1 34.8 18.1C35.6 18.1 35.9 18.5 35.9 19.3C35.9 19.8 35.8 20.4 35.5 21.2C35.2 22 35.1 22.7 35.1 23.3C35.1 23.8 35.3 24.1 35.8 24.1C36.4 24.1 37.1 23.9 37.9 23.5C38.7 23.1 39.4 22.7 40.1 22.2C40.8 21.7 41.5 21.2 42 20.8C42.5 20.3 42.9 20.1 43.2 20C43.1 20.3 43 20.5 43 20.5C42.7 20.8 42.2 21.2 41.6 21.8C41 22.3 40.3 22.8 39.6 23.3C38.9 23.8 38.2 24.2 37.6 24.6C36.9 25 36.3 25.1 35.9 25.1C34.8 25.1 34.2 24.5 34.2 23.3C34.2 22.7 34.4 22 34.7 21.1C35 20.2 35.2 19.6 35.2 19.2C35.2 18.8 35 18.7 34.7 18.7C34.4 18.7 33.9 18.8 33.3 19.1C32.7 19.4 31.9 19.8 31.1 20.5C30.3 21.1 29.4 21.9 28.6 22.9C27.7 23.9 26.9 25.1 26.1 26.5C26.1 26.5 26 26.8 26 27.1C26 27.4 25.9 27.6 25.6 27.6C25.5 27.6 25.4 27.5 25.3 27.3C25.2 27.1 25.2 27 25.2 26.9C25.2 26.2 25.5 25.2 26 23.8C26.5 22.4 27.2 20.8 28.1 19.1C28.9 17.4 29.9 15.6 30.9 13.7C31.9 11.9 32.9 10.2 33.9 8.7C34.9 7.2 35.7 5.9 36.5 4.9C37.2 4 37.7 3.5 38.1 3.5ZM38.2 4.5C38.2 4.4 38.2 4.3 38.2 4.3C38.2 4.2 38.2 4.2 38.2 4.1C37.8 4.4 37.2 5.2 36.3 6.4C35.4 7.6 34.6 9 33.7 10.4C32.8 11.9 32 13.3 31.2 14.8C30.4 16.3 29.9 17.4 29.6 18.2C30.4 17.7 31.3 16.8 32.3 15.5C33.3 14.2 34.2 12.8 35.1 11.3C36 9.8 36.7 8.4 37.4 7.1C37.9 5.7 38.2 4.9 38.2 4.5Z" fill="black"/>
<path d="M43 25.3C43 25 43.1 24.7 43.4 24.4C43.6 24.1 43.9 24 44.2 24C44.6 24 44.8 24.1 44.9 24.3C45 24.5 45.1 24.8 45.1 25C45.1 25.4 45 25.6 44.8 25.9C44.6 26.1 44.3 26.2 44 26.2C43.3 26.2 43 25.9 43 25.3Z" fill="black"/>
</svg>
