<?xml version="1.0" encoding="utf-8"?>
<!-- Generator: Adobe Illustrator 24.1.2, SVG Export Plug-In . SVG Version: 6.00 Build 0)  -->
<svg version="1.1" id="Camada_1" xmlns="http://www.w3.org/2000/svg" xmlns:xlink="http://www.w3.org/1999/xlink" x="0px" y="0px"
	 viewBox="0 0 210 74" style="enable-background:new 0 0 210 74;" xml:space="preserve">
<g>
	<path d="M15.4,22.61c0-0.48-0.13-0.92-0.4-1.32c-0.13-0.22-0.14-0.4-0.03-0.53c0.11-0.13,0.25-0.2,0.43-0.2
		c0.22,0,0.38,0.14,0.49,0.43c0.11,0.29,0.2,0.63,0.26,1.02s0.1,0.77,0.1,1.12c0,0.35,0,0.59,0,0.72c0,1.27-0.11,2.71-0.33,4.31
		c-0.22,1.6-0.47,3.17-0.76,4.71c-0.29,1.54-0.56,2.94-0.82,4.21c-0.26,1.27-0.44,2.24-0.53,2.9c0.17-0.31,0.56-1.11,1.15-2.4
		c0.59-1.29,1.33-2.81,2.21-4.54c0.88-1.73,1.88-3.58,3-5.53c1.12-1.95,2.28-3.74,3.49-5.37c1.21-1.62,2.42-2.97,3.65-4.05
		c1.23-1.07,2.41-1.61,3.55-1.61c0.75,0,1.38,0.24,1.91,0.72c0.53,0.48,0.95,1.1,1.28,1.84c0.33,0.75,0.57,1.57,0.72,2.47
		c0.15,0.9,0.23,1.77,0.23,2.6c0,2.11-0.37,4.51-1.12,7.21c-0.75,2.7-1.79,5.26-3.13,7.67c-1.34,2.41-2.94,4.44-4.81,6.09
		c-1.87,1.65-3.92,2.47-6.16,2.47c-1.67,0-2.98-0.36-3.95-1.09c-0.97-0.72-1.82-1.79-2.57-3.19c-0.31,0.62-0.6,1.54-0.89,2.76
		c-0.29,1.23-0.57,2.51-0.86,3.85c-0.29,1.34-0.57,2.61-0.86,3.82c-0.29,1.21-0.6,2.12-0.95,2.73c-0.09,0.17-0.24,0.24-0.46,0.2
		c-0.22-0.04-0.33-0.15-0.33-0.33c1.19-4.39,2.26-8.67,3.23-12.84c0.4-1.8,0.79-3.64,1.19-5.53c0.39-1.89,0.75-3.74,1.05-5.56
		c0.31-1.82,0.55-3.58,0.72-5.27C15.31,25.43,15.4,23.93,15.4,22.61z M13.82,42.1c0,0.31,0.09,0.71,0.26,1.22
		c0.17,0.51,0.48,1,0.92,1.48c0.44,0.48,1.03,0.9,1.78,1.25c0.75,0.35,1.67,0.53,2.76,0.53c1.89,0,3.68-0.75,5.37-2.24
		c1.69-1.49,3.17-3.38,4.44-5.66c1.27-2.28,2.3-4.78,3.09-7.5c0.79-2.72,1.21-5.31,1.25-7.77c0-0.35-0.04-0.88-0.13-1.58
		c-0.09-0.7-0.25-1.39-0.49-2.07c-0.24-0.68-0.57-1.27-0.99-1.78c-0.42-0.5-0.93-0.76-1.55-0.76c-0.97,0-2.06,0.56-3.29,1.68
		c-1.23,1.12-2.46,2.55-3.69,4.28c-1.23,1.73-2.43,3.62-3.59,5.66c-1.16,2.04-2.21,3.98-3.13,5.83c-0.92,1.84-1.66,3.46-2.21,4.84
		C14.09,40.88,13.82,41.75,13.82,42.1z"/>
	<path d="M35.87,38.94c0.13-0.96,0.42-1.79,0.86-2.47c0.44-0.68,0.92-1.24,1.45-1.68c0.53-0.44,1.05-0.76,1.58-0.95
		c0.53-0.2,0.94-0.3,1.25-0.3c0.48,0,0.72,0.26,0.72,0.79c0,0.4-0.14,0.8-0.43,1.22c-0.29,0.42-0.65,0.8-1.09,1.15
		c-0.44,0.35-0.91,0.66-1.42,0.92c-0.5,0.26-0.95,0.4-1.35,0.4c-0.26,0.13-0.4,0.48-0.4,1.05c0,0.61,0.11,1.1,0.33,1.45
		c0.22,0.35,0.64,0.53,1.25,0.53c0.88,0,2.14-0.34,3.79-1.02c1.65-0.68,3.32-1.66,5.04-2.93c0.57-0.44,0.96-0.66,1.19-0.66
		c0.17,0-0.09,0.33-0.79,0.99c-0.44,0.44-1.05,0.91-1.84,1.42c-0.79,0.5-1.64,0.99-2.53,1.45c-0.9,0.46-1.78,0.85-2.63,1.15
		c-0.86,0.31-1.61,0.46-2.27,0.46c-0.79,0-1.47-0.26-2.04-0.79C35.96,40.58,35.74,39.86,35.87,38.94z M37.65,37.42
		c0.92-0.26,1.71-0.69,2.37-1.28c0.66-0.59,1.01-1.2,1.05-1.81c-0.7,0.22-1.38,0.62-2.04,1.19C38.37,36.09,37.91,36.72,37.65,37.42z
		"/>
	<path d="M52.78,32.42c0.35,0,0.64,0.17,0.86,0.49c0.22,0.33,0.42,0.67,0.59,1.02c1.36-1.89,2.52-3.77,3.49-5.66
		c0.96-1.89,2.02-3.8,3.16-5.73c0.09-0.17,0.25-0.31,0.49-0.4c0.24-0.09,0.36,0.04,0.36,0.4c-1.49,3.03-2.81,5.99-3.95,8.89
		c-0.48,1.23-0.95,2.5-1.42,3.82c-0.46,1.32-0.88,2.62-1.25,3.92c-0.37,1.29-0.66,2.53-0.86,3.72c-0.2,1.19-0.27,2.26-0.23,3.23
		c0.04,1.1,0.17,1.84,0.36,2.24s0.49,0.59,0.89,0.59c0.44,0,0.59,0.09,0.46,0.26c-0.13,0.18-0.31,0.26-0.53,0.26
		c-0.7,0-1.15-0.44-1.35-1.32c-0.2-0.88-0.32-1.65-0.36-2.3c-0.04-1.32,0.09-2.72,0.4-4.21c0.31-1.49,0.67-2.92,1.09-4.28
		c0.42-1.36,0.8-2.58,1.15-3.65c0.35-1.07,0.55-1.88,0.59-2.4c-0.62,0.97-1.1,1.64-1.45,2.01c-0.35,0.37-0.68,0.78-0.99,1.22
		l0.13,1.58c0.04,0.31-0.01,0.47-0.16,0.49c-0.15,0.02-0.23-0.08-0.23-0.3c0-0.18,0-0.38,0-0.63c0-0.24-0.04-0.45-0.13-0.63
		c-0.4,0.4-0.83,0.9-1.32,1.51c-0.48,0.62-0.98,1.23-1.48,1.84c-0.5,0.61-0.97,1.14-1.38,1.58c-0.42,0.44-0.74,0.66-0.95,0.66
		c-0.79,0-1.18-0.46-1.18-1.38c0-0.53,0.17-1.17,0.53-1.94c0.35-0.77,0.78-1.51,1.28-2.24c0.5-0.72,1.06-1.35,1.68-1.88
		C51.69,32.68,52.26,32.42,52.78,32.42z M53.71,34.4c0-0.22-0.09-0.49-0.26-0.82c-0.18-0.33-0.37-0.49-0.59-0.49
		c-0.13,0-0.41,0.19-0.82,0.56c-0.42,0.37-0.85,0.87-1.28,1.48c-0.44,0.62-0.85,1.33-1.22,2.14c-0.37,0.81-0.63,1.68-0.76,2.6
		c0.17-0.13,0.48-0.44,0.92-0.92c0.44-0.48,0.91-1.02,1.42-1.61c0.5-0.59,1-1.16,1.48-1.71C53.07,35.07,53.44,34.66,53.71,34.4z"/>
	<path d="M56.54,44.6c0-0.09,0.03-0.32,0.1-0.69c0.07-0.37,0.14-0.73,0.23-1.09c0.79-2.63,1.4-4.66,1.84-6.09
		c0.44-1.43,0.77-2.47,0.99-3.13c0.22-0.66,0.38-1.04,0.49-1.15c0.11-0.11,0.23-0.16,0.36-0.16c0.17,0,0.32,0.08,0.43,0.23
		c0.11,0.15,0.16,0.3,0.16,0.43c0,0.09-0.08,0.34-0.23,0.76c-0.15,0.42-0.33,0.89-0.53,1.42c-0.2,0.53-0.4,1.08-0.59,1.65
		c-0.2,0.57-0.34,1.08-0.43,1.51c1.14-1.97,2.16-3.58,3.06-4.81c0.9-1.23,1.66-1.84,2.27-1.84c0.44,0,0.7,0.33,0.79,0.99
		c0.09,0.66,0.16,1.37,0.23,2.14c0.07,0.77,0.22,1.48,0.46,2.14c0.24,0.66,0.71,0.99,1.42,0.99c0.61,0,1.16-0.14,1.65-0.43
		c0.48-0.29,0.92-0.56,1.32-0.82c0.39-0.26,0.56-0.3,0.49-0.1c-0.07,0.2-0.21,0.41-0.43,0.63c-0.44,0.35-0.95,0.65-1.55,0.89
		c-0.59,0.24-1.11,0.36-1.55,0.36c-0.83,0-1.39-0.32-1.68-0.95c-0.29-0.64-0.48-1.35-0.59-2.14c-0.11-0.79-0.18-1.5-0.2-2.14
		c-0.02-0.64-0.19-0.95-0.49-0.95c-0.31,0-0.92,0.57-1.84,1.71c-0.92,1.14-1.82,2.66-2.7,4.54c-0.7,1.54-1.24,2.74-1.61,3.62
		c-0.37,0.88-0.65,1.53-0.82,1.94c-0.17,0.42-0.3,0.68-0.36,0.79c-0.07,0.11-0.16,0.16-0.3,0.16C56.67,44.99,56.54,44.86,56.54,44.6
		z"/>
	<path d="M72.99,34.13c0.17,0,0.27,0.08,0.3,0.23c0.02,0.15,0.03,0.3,0.03,0.43c0,0.53,0.15,0.94,0.46,1.25
		c0.31,0.31,0.7,0.53,1.19,0.66c0.48,0.13,1.01,0.22,1.58,0.26c0.57,0.04,1.14,0.07,1.71,0.07c1.23,0,2.26-0.15,3.09-0.46
		c0.39-0.09,0.75-0.22,1.05-0.4c0.22,0,0.28,0.06,0.2,0.16c-0.09,0.11-0.18,0.19-0.26,0.23c-1.76,0.62-3.38,0.92-4.87,0.92
		c-0.97,0-1.71-0.09-2.24-0.26c-0.53-0.17-1.01-0.33-1.45-0.46c-0.22,0.53-0.46,1.13-0.72,1.81c-0.26,0.68-0.56,1.34-0.89,1.97
		c-0.33,0.64-0.68,1.16-1.05,1.58c-0.37,0.42-0.8,0.63-1.28,0.63c-0.44,0-0.75-0.17-0.92-0.53c-0.18-0.35-0.26-0.72-0.26-1.12
		c0-0.35,0.15-0.91,0.46-1.68c0.31-0.77,0.68-1.55,1.12-2.34c0.44-0.79,0.91-1.48,1.42-2.07C72.15,34.43,72.6,34.13,72.99,34.13z
		 M69.97,41.57c0.31,0,0.64-0.23,0.99-0.69c0.35-0.46,0.67-0.99,0.95-1.58c0.28-0.59,0.53-1.19,0.72-1.78
		c0.2-0.59,0.3-1.02,0.3-1.28c0-0.09-0.02-0.2-0.07-0.33c-0.04-0.13-0.09-0.31-0.13-0.53c-0.22,0.31-0.49,0.7-0.82,1.19
		c-0.33,0.48-0.66,0.99-0.99,1.51c-0.33,0.53-0.61,1.06-0.86,1.61c-0.24,0.55-0.36,1.04-0.36,1.48
		C69.79,41.44,69.88,41.57,69.97,41.57z"/>
	<path d="M101.69,44.4c0-0.44-0.15-0.83-0.46-1.19c-0.18-0.22-0.35-0.53-0.53-0.92c-0.18-0.4-0.26-0.61-0.26-0.66
		c0-0.18,0.07-0.3,0.2-0.36c0.13-0.07,0.24,0.01,0.33,0.23c0.13,0.26,0.25,0.53,0.36,0.79c0.11,0.26,0.32,0.5,0.63,0.72
		c0.04-0.09,0.25-0.79,0.63-2.11c0.37-1.32,0.81-2.94,1.32-4.87c0.5-1.93,1.05-4.03,1.65-6.29c0.59-2.26,1.13-4.39,1.61-6.39
		c0.48-2,0.89-3.72,1.22-5.17c0.33-1.45,0.49-2.33,0.49-2.63c0-0.22-0.11-0.33-0.33-0.33l-0.13,0.07c-0.13,0-0.2-0.09-0.2-0.26
		c0-0.13,0.09-0.25,0.26-0.36c0.17-0.11,0.33-0.16,0.46-0.16c0.35,0.04,0.57,0.22,0.66,0.53c0.09,0.31,0.13,0.64,0.13,0.99
		c0,0.61-0.15,1.61-0.46,3c-0.31,1.38-0.68,2.96-1.12,4.74c-0.44,1.78-0.93,3.67-1.48,5.66c-0.55,2-1.06,3.92-1.55,5.76
		c-0.48,1.84-0.9,3.52-1.25,5.04c-0.35,1.51-0.59,2.69-0.72,3.52c0.53-1.19,1.25-2.73,2.17-4.64c0.92-1.91,1.98-3.97,3.16-6.19
		c1.19-2.22,2.46-4.44,3.82-6.68c1.36-2.24,2.76-4.26,4.21-6.06c1.45-1.8,2.87-3.27,4.28-4.41c1.4-1.14,2.74-1.71,4.02-1.71
		c0.79,0,1.45,0.21,1.98,0.63c0.53,0.42,0.95,0.94,1.28,1.58c0.33,0.64,0.57,1.36,0.72,2.17c0.15,0.81,0.23,1.61,0.23,2.4
		c0,1.67-0.34,3.79-1.02,6.35c-0.68,2.57-1.9,5.1-3.65,7.6c-1.76,2.5-4.15,4.75-7.18,6.75c-3.03,2-6.91,3.26-11.65,3.79
		c2.11,0.83,4.34,1.54,6.71,2.11c2.37,0.57,4.55,1.14,6.55,1.71c2,0.57,3.66,1.19,5,1.84c1.34,0.66,2.01,1.49,2.01,2.5
		c0,0.22-0.11,0.33-0.33,0.33c-0.13,0-0.31-0.11-0.53-0.33c-0.97-1.01-2.13-1.75-3.49-2.24c-1.36-0.48-2.92-0.95-4.67-1.42
		c-1.76-0.46-3.71-1.02-5.86-1.68c-2.15-0.66-4.52-1.65-7.11-2.96c-0.22,0.13-0.35,0.29-0.39,0.46c-0.04,0.18-0.11,0.37-0.2,0.59
		c-0.79,2.41-1.4,4.48-1.84,6.19c-0.44,1.71-0.79,3.12-1.05,4.21c-0.26,1.1-0.49,1.9-0.69,2.4c-0.2,0.5-0.43,0.76-0.69,0.76
		c-0.44,0-0.66-0.2-0.66-0.59c0-0.18,0.09-0.66,0.26-1.45c0.17-0.79,0.38-1.71,0.63-2.76c0.24-1.05,0.52-2.17,0.82-3.36
		c0.31-1.18,0.58-2.29,0.82-3.32c0.24-1.03,0.45-1.91,0.63-2.63C101.6,44.96,101.69,44.53,101.69,44.4z M104.06,44.07
		c0,0.18,0.11,0.29,0.33,0.33c0.22,0.04,0.79,0.07,1.71,0.07c2.59,0,5.16-0.71,7.7-2.14c2.54-1.43,4.84-3.29,6.88-5.6
		c2.04-2.3,3.71-4.93,5-7.87c1.29-2.94,2.01-5.92,2.14-8.95c-0.09-1.23-0.34-2.38-0.76-3.46c-0.42-1.07-1.22-1.61-2.4-1.61
		c-1.23,0-2.59,0.67-4.08,2.01c-1.49,1.34-3,3.02-4.51,5.04c-1.51,2.02-3,4.25-4.44,6.68s-2.73,4.73-3.85,6.88
		c-1.12,2.15-2.02,4.03-2.7,5.63C104.4,42.68,104.06,43.68,104.06,44.07z"/>
	<path d="M127.83,38.94c0.13-0.96,0.42-1.79,0.86-2.47c0.44-0.68,0.92-1.24,1.45-1.68c0.53-0.44,1.05-0.76,1.58-0.95
		c0.53-0.2,0.94-0.3,1.25-0.3c0.48,0,0.72,0.26,0.72,0.79c0,0.4-0.14,0.8-0.43,1.22c-0.29,0.42-0.65,0.8-1.09,1.15
		c-0.44,0.35-0.91,0.66-1.42,0.92c-0.5,0.26-0.95,0.4-1.35,0.4c-0.26,0.13-0.4,0.48-0.4,1.05c0,0.61,0.11,1.1,0.33,1.45
		c0.22,0.35,0.64,0.53,1.25,0.53c0.88,0,2.14-0.34,3.79-1.02c1.65-0.68,3.32-1.66,5.04-2.93c0.57-0.44,0.96-0.66,1.19-0.66
		c0.17,0-0.09,0.33-0.79,0.99c-0.44,0.44-1.05,0.91-1.84,1.42c-0.79,0.5-1.64,0.99-2.53,1.45c-0.9,0.46-1.78,0.85-2.63,1.15
		c-0.86,0.31-1.61,0.46-2.27,0.46c-0.79,0-1.47-0.26-2.04-0.79C127.91,40.58,127.69,39.86,127.83,38.94z M129.6,37.42
		c0.92-0.26,1.71-0.69,2.37-1.28c0.66-0.59,1.01-1.2,1.05-1.81c-0.7,0.22-1.38,0.62-2.04,1.19
		C130.33,36.09,129.87,36.72,129.6,37.42z"/>
	<path d="M137.83,56.25c0-0.75,0.22-1.62,0.66-2.63c0.44-1.01,1-2.03,1.68-3.06c0.68-1.03,1.42-2.04,2.21-3.03
		c0.79-0.99,1.51-1.83,2.17-2.53c0.79-0.79,1.42-1.43,1.88-1.91c0.46-0.48,0.82-0.87,1.09-1.15c0.26-0.28,0.45-0.52,0.56-0.69
		c0.11-0.17,0.19-0.4,0.23-0.66c0.04-0.22,0.09-0.54,0.13-0.95c0.04-0.42,0.09-0.84,0.13-1.28c0.04-0.44,0.08-0.83,0.1-1.19
		c0.02-0.35,0.03-0.59,0.03-0.72c0-0.22-0.06-0.57-0.16-1.05c-0.11-0.48-0.34-0.72-0.69-0.72c-0.53,0-1.17,0.35-1.94,1.05
		c-0.77,0.7-1.56,1.48-2.37,2.34c-0.81,0.86-1.59,1.64-2.34,2.34c-0.75,0.7-1.38,1.05-1.91,1.05c-0.7,0-1.05-0.4-1.05-1.19
		c0-0.53,0.18-1.11,0.53-1.74c0.35-0.64,0.78-1.25,1.28-1.84c0.5-0.59,1.02-1.09,1.55-1.48c0.53-0.4,0.99-0.59,1.38-0.59
		c0.44,0,0.88,0.35,1.32,1.05c0.31-0.26,0.83-0.67,1.58-1.22c0.75-0.55,1.43-0.82,2.04-0.82c0.66,0,1.13,0.29,1.42,0.86
		c0.28,0.57,0.43,1.1,0.43,1.58c0,0.18-0.01,0.45-0.03,0.82c-0.02,0.37-0.06,0.77-0.1,1.19c-0.04,0.42-0.09,0.81-0.13,1.19
		c-0.04,0.37-0.07,0.65-0.07,0.82c0.31-0.22,0.72-0.53,1.25-0.92c0.53-0.4,1.09-0.79,1.68-1.19s1.17-0.73,1.74-1.02
		c0.57-0.28,1.03-0.43,1.38-0.43c0.22,0,0.3,0.04,0.23,0.13c-0.07,0.09-0.14,0.15-0.23,0.2c-1.27,0.44-2.4,1.04-3.39,1.81
		c-0.99,0.77-1.92,1.59-2.8,2.47c-0.48,1.71-1.15,3.55-2.01,5.53c-0.86,1.98-1.78,3.8-2.76,5.46c-0.99,1.67-1.97,3.06-2.96,4.18
		c-0.99,1.12-1.85,1.68-2.6,1.68c-0.31-0.04-0.57-0.19-0.79-0.43C137.94,57.29,137.83,56.86,137.83,56.25z M138.56,56.51
		c0,0.48,0.2,0.72,0.59,0.72c0.48,0,1.13-0.46,1.94-1.38c0.81-0.92,1.66-2.11,2.53-3.55c0.88-1.45,1.7-3.06,2.47-4.84
		c0.77-1.78,1.37-3.5,1.81-5.17c-0.31,0.26-0.97,0.93-1.97,2.01c-1.01,1.08-2.06,2.31-3.16,3.72c-1.1,1.4-2.07,2.87-2.93,4.41
		C138.98,53.97,138.56,55.33,138.56,56.51z M143.43,36.17c0-0.4-0.11-0.59-0.33-0.59c-0.22,0-0.52,0.16-0.89,0.49
		c-0.37,0.33-0.74,0.71-1.09,1.15c-0.35,0.44-0.66,0.89-0.92,1.35c-0.26,0.46-0.42,0.82-0.46,1.09c0.88-0.79,1.56-1.39,2.04-1.81
		c0.48-0.42,0.84-0.73,1.09-0.95c0.24-0.22,0.4-0.37,0.46-0.46C143.39,36.35,143.43,36.26,143.43,36.17z"/>
	<path d="M154.35,38.94c0.13-0.96,0.42-1.79,0.86-2.47c0.44-0.68,0.92-1.24,1.45-1.68c0.53-0.44,1.05-0.76,1.58-0.95
		c0.53-0.2,0.94-0.3,1.25-0.3c0.48,0,0.72,0.26,0.72,0.79c0,0.4-0.14,0.8-0.43,1.22c-0.29,0.42-0.65,0.8-1.09,1.15
		c-0.44,0.35-0.91,0.66-1.42,0.92c-0.5,0.26-0.95,0.4-1.35,0.4c-0.26,0.13-0.4,0.48-0.4,1.05c0,0.61,0.11,1.1,0.33,1.45
		c0.22,0.35,0.64,0.53,1.25,0.53c0.88,0,2.14-0.34,3.79-1.02c1.65-0.68,3.32-1.66,5.04-2.93c0.57-0.44,0.96-0.66,1.19-0.66
		c0.17,0-0.09,0.33-0.79,0.99c-0.44,0.44-1.05,0.91-1.84,1.42c-0.79,0.5-1.64,0.99-2.53,1.45c-0.9,0.46-1.78,0.85-2.63,1.15
		c-0.86,0.31-1.61,0.46-2.27,0.46c-0.79,0-1.47-0.26-2.04-0.79C154.44,40.58,154.22,39.86,154.35,38.94z M156.13,37.42
		c0.92-0.26,1.71-0.69,2.37-1.28c0.66-0.59,1.01-1.2,1.05-1.81c-0.7,0.22-1.38,0.62-2.04,1.19
		C156.85,36.09,156.39,36.72,156.13,37.42z"/>
	<path d="M171.8,35.05c0.44,0,0.73,0.23,0.89,0.69c0.15,0.46,0.32,0.95,0.49,1.48c0.17,0.53,0.39,1.02,0.66,1.48
		c0.26,0.46,0.7,0.69,1.32,0.69c0.4,0,1.13-0.2,2.21-0.59c1.08-0.4,2.18-1.1,3.32-2.11c0.09-0.04,0.24-0.15,0.46-0.33
		c0.22-0.17,0.35-0.26,0.4-0.26c0.22,0,0.3,0.06,0.23,0.16c-0.07,0.11-0.14,0.21-0.23,0.3c-0.35,0.35-0.81,0.72-1.38,1.12
		c-0.57,0.4-1.16,0.77-1.78,1.12c-0.62,0.35-1.23,0.65-1.84,0.89c-0.62,0.24-1.12,0.36-1.51,0.36c-0.75,0-1.29-0.23-1.65-0.69
		c-0.35-0.46-0.62-0.95-0.79-1.48c-0.18-0.53-0.31-1.02-0.4-1.48c-0.09-0.46-0.26-0.69-0.53-0.69c-0.4,0-0.87,0.34-1.42,1.02
		c-0.55,0.68-1.11,1.44-1.68,2.27c-0.57,0.83-1.1,1.59-1.58,2.27c-0.48,0.68-0.83,1.02-1.05,1.02c-0.26,0-0.44-0.2-0.53-0.59
		c0-0.26,0.12-0.86,0.36-1.78c0.24-0.92,0.53-1.9,0.86-2.93c0.33-1.03,0.68-1.94,1.05-2.73c0.37-0.79,0.69-1.18,0.95-1.18
		c0.13,0,0.29,0.06,0.46,0.16c0.17,0.11,0.26,0.27,0.26,0.49c0,0.18-0.1,0.5-0.3,0.99c-0.2,0.48-0.43,1.02-0.69,1.61
		s-0.53,1.2-0.79,1.81c-0.26,0.62-0.48,1.16-0.66,1.65c0.17-0.22,0.47-0.59,0.89-1.12c0.42-0.53,0.87-1.05,1.35-1.58
		c0.48-0.53,0.96-1,1.45-1.42C171.09,35.26,171.49,35.05,171.8,35.05z"/>
	<path d="M179.63,39.27c0-0.48,0.14-0.99,0.43-1.51c0.28-0.53,0.63-1.01,1.02-1.45c0.4-0.44,0.8-0.79,1.22-1.05
		c0.42-0.26,0.76-0.4,1.02-0.4c0.48,0,0.72,0.26,0.72,0.79c0,0.48-0.26,1-0.79,1.55c-0.53,0.55-1.18,0.82-1.97,0.82
		c-0.35,0-0.57,0.13-0.66,0.4c-0.09,0.26-0.13,0.5-0.13,0.72c0,0.7,0.42,1.05,1.25,1.05c0.75,0,1.49-0.15,2.24-0.46
		c0.75-0.31,1.47-0.7,2.17-1.19c0.7-0.48,1.37-1.02,2.01-1.61c0.64-0.59,1.22-1.15,1.74-1.68c0.13-0.13,0.23-0.29,0.3-0.46
		c0.07-0.17,0.14-0.35,0.23-0.53c0.35-0.61,0.58-0.99,0.69-1.12c0.11-0.13,0.27-0.2,0.49-0.2c0.26,0,0.4,0.13,0.4,0.4
		c0,0.35-0.15,0.67-0.46,0.95c-0.31,0.29-0.46,0.76-0.46,1.42c0,0.75,0.24,1.58,0.72,2.5c0.48,0.92,0.86,1.65,1.12,2.17
		c0.4-0.17,0.88-0.46,1.45-0.86c0.57-0.39,1.19-0.8,1.84-1.22c0.66-0.42,1.33-0.81,2.01-1.18c0.68-0.37,1.31-0.63,1.88-0.76
		c0.35-0.09,0.54-0.05,0.56,0.1c0.02,0.15-0.14,0.27-0.49,0.36c-0.62,0.13-1.29,0.38-2.04,0.76c-0.75,0.37-1.47,0.79-2.17,1.25
		c-0.7,0.46-1.31,0.88-1.81,1.25c-0.5,0.37-0.82,0.63-0.95,0.76c0,0.22,0.09,0.55,0.26,0.99c0.17,0.44,0.26,0.92,0.26,1.45
		c0,0.75-0.21,1.46-0.63,2.14c-0.42,0.68-0.93,1.28-1.55,1.81c-0.62,0.53-1.29,0.95-2.04,1.28c-0.75,0.33-1.43,0.49-2.04,0.49
		c-0.48,0-0.9-0.1-1.25-0.3c-0.35-0.2-0.53-0.54-0.53-1.02c0-0.66,0.19-1.28,0.56-1.88c0.37-0.59,0.83-1.16,1.38-1.71
		c0.55-0.55,1.15-1.05,1.81-1.51c0.66-0.46,1.25-0.84,1.78-1.15c0.48-0.31,0.72-0.53,0.72-0.66c0-0.04-0.09-0.24-0.26-0.59
		c-0.18-0.35-0.36-0.77-0.56-1.25c-0.2-0.48-0.4-0.98-0.59-1.48c-0.2-0.5-0.34-0.91-0.43-1.22c-0.31,0.31-0.77,0.74-1.38,1.28
		c-0.62,0.55-1.29,1.1-2.04,1.65c-0.75,0.55-1.54,1.02-2.37,1.42c-0.83,0.39-1.65,0.59-2.44,0.59c-0.66,0-1.2-0.16-1.61-0.49
		S179.63,39.88,179.63,39.27z M181.54,37.09c0.75-0.26,1.21-0.66,1.38-1.18C182.35,36.13,181.89,36.52,181.54,37.09z M186.54,47.56
		c0,0.48,0.33,0.72,0.99,0.72c0.53,0,1.1-0.14,1.71-0.43c0.61-0.29,1.19-0.66,1.71-1.12c0.53-0.46,0.96-0.99,1.32-1.58
		c0.35-0.59,0.53-1.2,0.53-1.81c0-0.7-0.18-1.32-0.53-1.84c-0.48,0.26-1.05,0.63-1.71,1.09c-0.66,0.46-1.28,0.98-1.88,1.55
		c-0.59,0.57-1.1,1.15-1.51,1.74C186.75,46.48,186.54,47.03,186.54,47.56z"/>
</g>
</svg>
